# xmcd CD database file
#
# Track frame offsets:
#	150
#	18971
#	35474
#	53350
#	71299
#	93630
#	118301
#	137233
#	157121
#	179625
#	196786
#	219390
#	239626
#
# Disc length: 3468 seconds
#
# Revision: 0
# Processed by: cddbd v1.4PL0 Copyright (c) Steve Scherf et al.
# Submitted via: CDex 1.40Release
#
DISCID=b90d8a0d
DTITLE=John Wibberley - Heartless Land
DYEAR=1900
DGENRE=Country
TTITLE0=Heart's On The Run
TTITLE1=The Devil's Breath
TTITLE2=Right On
TTITLE3=Must Have Been The Fire
TTITLE4=Suzi's Arms
TTITLE5=Brother Lost
TTITLE6=Sunday Morning
TTITLE7=Black Horse
TTITLE8=Oh What A Fool I've Been
TTITLE9=Heartless Land
TTITLE10=You Still Drive Me Crazy
TTITLE11=Red Desert Flowers
TTITLE12=Blood and Tears
EXTD=ID3G: 2
EXTT0=
EXTT1=
EXTT2=
EXTT3=
EXTT4=
EXTT5=
EXTT6=
EXTT7=
EXTT8=
EXTT9=
EXTT10=
EXTT11=
EXTT12=
PLAYORDER=
